<?xml version="1.0" encoding="utf-8"?>
<!-- Generator: Adobe Illustrator 18.0.0, SVG Export Plug-In . SVG Version: 6.00 Build 0)  -->
<!DOCTYPE svg PUBLIC "-//W3C//DTD SVG 1.1//EN" "http://www.w3.org/Graphics/SVG/1.1/DTD/svg11.dtd">
<svg version="1.1" id="Layer_1" xmlns="http://www.w3.org/2000/svg" xmlns:xlink="http://www.w3.org/1999/xlink" x="0px" y="0px"
	 viewBox="0 0 119 27" enable-background="new 0 0 119 27" xml:space="preserve">
<g>
	<path fill-rule="evenodd" clip-rule="evenodd" fill="#989898" d="M21.5,1v17h-5.3V6.1c-1,3-2.4,7-4.3,11.9H8.5
		C6.6,13.1,5.2,9.1,4.2,6.1h0V18H0V1h7.2C8,3.1,8.6,4.7,9,5.9c0.7,2,1.3,3.8,1.8,5.5l0.1,0c0.7-2.3,1.9-5.8,3.6-10.5H21.5z"/>
	<path fill-rule="evenodd" clip-rule="evenodd" fill="#989898" d="M30.6,18.2c-2.1,0-3.8-0.6-5.1-1.7c-1.4-1.2-2.1-2.8-2.1-4.8
		c0-1.9,0.7-3.4,2.2-4.6c1.4-1.1,3.1-1.6,5.1-1.6c2,0,3.7,0.6,5.1,1.7c1.5,1.2,2.2,2.7,2.2,4.6c0,2-0.7,3.6-2.1,4.8
		C34.5,17.7,32.7,18.2,30.6,18.2 M30.6,7.7c-0.8,0-1.4,0.5-1.7,1.6c-0.3,0.7-0.4,1.5-0.4,2.5c0,2.9,0.7,4.3,2.1,4.3
		c1.4,0,2.2-1.4,2.2-4.3c0-1-0.1-1.8-0.4-2.5C32,8.2,31.4,7.7,30.6,7.7"/>
	<path fill-rule="evenodd" clip-rule="evenodd" fill="#989898" d="M38.1,24v-1.4c0.7-0.1,1.2-0.5,1.5-1c0.2-0.6,0.2-1.4,0.2-2.7V5.8
		h5.1v13c0,2.1-0.6,3.5-1.8,4.3C42,23.7,40.4,24,38.1,24 M42.3,5c-0.7,0-1.3-0.3-1.8-0.8c-0.5-0.5-0.8-1.1-0.8-1.8
		c0-0.6,0.3-1.2,0.8-1.7C41.1,0.3,41.7,0,42.3,0c0.7,0,1.3,0.2,1.9,0.7C44.8,1.2,45,1.8,45,2.5c0,0.7-0.3,1.3-0.8,1.8
		C43.7,4.8,43,5,42.3,5"/>
	<path fill-rule="evenodd" clip-rule="evenodd" fill="#989898" d="M53.7,8.9l0.7-0.1c0.7-0.1,1.2-0.4,1.7-0.9
		c0.5-0.5,0.7-1.1,0.7-1.8c0-1.3-0.9-2-2.6-2h-1.4V18h-5.3V1h7.3c2,0,3.6,0.3,4.8,1C61.2,2.8,62,4.1,62,5.9c0,1.8-0.8,3.3-2.3,4.4
		c-1.4,1.1-3.1,1.6-5,1.6h-1V8.9z"/>
	<path fill-rule="evenodd" clip-rule="evenodd" fill="#989898" d="M70,18.2c-2.1,0-3.8-0.6-5.1-1.7c-1.4-1.2-2.1-2.8-2.1-4.8
		c0-1.9,0.7-3.4,2.2-4.6C66.3,6.1,68,5.5,70,5.5c2,0,3.7,0.6,5.1,1.7c1.5,1.2,2.2,2.7,2.2,4.6c0,2-0.7,3.6-2.1,4.8
		C73.9,17.7,72.1,18.2,70,18.2 M70,7.7c-0.8,0-1.4,0.5-1.7,1.6c-0.3,0.7-0.4,1.5-0.4,2.5c0,2.9,0.7,4.3,2.1,4.3
		c1.4,0,2.2-1.4,2.2-4.3c0-1-0.1-1.8-0.4-2.5C71.4,8.2,70.9,7.7,70,7.7"/>
	<path fill-rule="evenodd" clip-rule="evenodd" fill="#989898" d="M88.1,6.4L87,8.6C86.3,8.2,85.7,8,85.2,8c-0.7,0-1,0.3-1,0.9
		c0,0.4,0.3,0.8,0.8,1.2c0.4,0.3,1,0.7,1.9,1.3c0.9,0.6,1.4,1.3,1.6,2.1c0.1,0.2,0.1,0.6,0.1,1.2c0,0.8-0.4,1.5-1.3,2.3
		c-1,0.9-2.3,1.4-3.9,1.4c-2,0-3.6-0.4-4.8-1.1l1.1-2.5c1.2,0.7,2.1,1,2.7,1c0.8,0,1.2-0.3,1.2-1c0-0.3-0.3-0.7-0.8-1.1
		c-0.3-0.2-0.8-0.6-1.7-1.1c-1.3-0.8-2-1.9-2-3.2c0-1.1,0.5-2,1.5-2.7c0.9-0.6,2-0.9,3.2-0.9C85.3,5.5,86.8,5.8,88.1,6.4"/>
	<path fill-rule="evenodd" clip-rule="evenodd" fill="#989898" d="M97.8,11l-1.4,0.5c-1.2,0.5-1.9,1.3-1.9,2.4c0,0.4,0.1,0.7,0.4,1
		c0.3,0.3,0.6,0.4,0.9,0.4c0.8,0,1.4-0.6,1.7-1.7C97.8,12.8,97.9,11.9,97.8,11 M97.7,16.6L97,17c-1.6,0.8-2.7,1.2-3.4,1.2
		c-1,0-1.9-0.4-2.6-1.1c-0.7-0.7-1.1-1.6-1.1-2.5c0-1.4,0.5-2.5,1.5-3.2c0.8-0.6,1.9-1.1,3.5-1.5l2.9-0.7c-0.2-0.3-0.5-0.6-0.9-0.9
		c-0.4-0.2-0.8-0.4-1.2-0.4c-1.2,0-2.3,0.4-3.3,1.3l-1.4-2.2c1.7-1.1,3.6-1.7,5.6-1.7c4,0,6.1,1.7,6.1,5.1V15c0,1.2,0.1,2.2,0.4,3
		h-5.3C97.8,17.6,97.7,17.2,97.7,16.6"/>
	<path fill-rule="evenodd" clip-rule="evenodd" fill="#989898" d="M111.6,18.2c-2.1,0-3.8-0.6-5.1-1.7c-1.4-1.2-2.1-2.8-2.1-4.8
		c0-1.9,0.7-3.4,2.2-4.6c1.4-1.1,3.1-1.6,5.1-1.6c2,0,3.7,0.6,5.1,1.7c1.5,1.2,2.2,2.7,2.2,4.6c0,2-0.7,3.6-2.1,4.8
		C115.5,17.7,113.7,18.2,111.6,18.2 M111.6,7.7c-0.8,0-1.4,0.5-1.7,1.6c-0.3,0.7-0.4,1.5-0.4,2.5c0,2.9,0.7,4.3,2.1,4.3
		c1.4,0,2.2-1.4,2.2-4.3c0-1-0.1-1.8-0.4-2.5C113,8.2,112.4,7.7,111.6,7.7"/>
	<g>
		<path fill="#989898" d="M51.1,21.9l-0.2,0.3c-0.3-0.2-0.6-0.3-1-0.3c-0.5,0-0.9,0.1-1.1,0.4c-0.3,0.3-0.4,0.7-0.4,1.2
			c0,0.5,0.1,0.9,0.4,1.2c0.3,0.3,0.7,0.5,1.1,0.5c0.4,0,0.7-0.1,1-0.3l0.2,0.3c-0.4,0.2-0.8,0.4-1.2,0.4c-0.6,0-1.1-0.2-1.5-0.6
			c-0.4-0.4-0.6-0.9-0.6-1.5c0-0.6,0.2-1.1,0.7-1.5c0.4-0.4,0.9-0.6,1.5-0.6C50.3,21.5,50.7,21.7,51.1,21.9z"/>
		<path fill="#989898" d="M53.9,24.2H52c0,0.3,0.1,0.5,0.3,0.7c0.2,0.2,0.4,0.3,0.7,0.3c0.3,0,0.6-0.1,0.8-0.2l0.1,0.3
			c-0.3,0.2-0.6,0.3-0.9,0.3c-0.5,0-0.8-0.1-1.1-0.4c-0.2-0.3-0.4-0.6-0.4-1.1c0-0.4,0.1-0.8,0.4-1c0.2-0.3,0.6-0.4,1-0.4
			c0.4,0,0.6,0.1,0.8,0.4c0.2,0.2,0.3,0.5,0.3,0.9C53.9,24.1,53.9,24.1,53.9,24.2z M52,23.8h1.4c0-0.2,0-0.4-0.1-0.6
			C53.2,23.1,53,23,52.8,23c-0.2,0-0.4,0.1-0.6,0.2C52.1,23.4,52.1,23.6,52,23.8z"/>
		<path fill="#989898" d="M55,22.7v0.4c0.3-0.3,0.6-0.4,1-0.4c0.7,0,1,0.4,1,1.1v1.8h-0.5v-1.7c0-0.5-0.2-0.8-0.7-0.8
			c-0.2,0-0.4,0.1-0.6,0.2c-0.1,0.2-0.2,0.3-0.2,0.6v1.7h-0.5v-2.8H55z"/>
		<path fill="#989898" d="M58.5,21.9v0.8h0.7V23h-0.7v1.6c0,0.4,0.1,0.6,0.4,0.6c0.1,0,0.3,0,0.4-0.1l0.1,0.3
			c-0.2,0.1-0.4,0.2-0.6,0.2c-0.6,0-0.8-0.3-0.8-0.9V23h-0.4v-0.3H58v-0.7L58.5,21.9z"/>
		<path fill="#989898" d="M60.3,22.7v0.4l0.2-0.2c0.1-0.1,0.3-0.2,0.4-0.2c0.2,0,0.3,0.1,0.5,0.3l-0.2,0.3c-0.2-0.1-0.3-0.1-0.4-0.1
			c-0.2,0-0.3,0.1-0.4,0.3c-0.1,0.2-0.1,0.3-0.1,0.6v1.5h-0.5v-2.8H60.3z"/>
		<path fill="#989898" d="M63.3,25.1l-0.2,0.2c-0.3,0.2-0.5,0.4-0.7,0.4c-0.2,0-0.4-0.1-0.6-0.3c-0.1-0.2-0.2-0.4-0.2-0.6
			c0-0.4,0.3-0.8,1-1l0.7-0.2c0-0.2-0.1-0.3-0.2-0.4C63,23.1,62.8,23,62.7,23c-0.2,0-0.5,0.1-0.7,0.3l-0.2-0.3
			c0.3-0.3,0.6-0.4,1-0.4c0.7,0,1,0.3,1,1v1.2c0,0.3,0,0.5,0.1,0.7h-0.6C63.3,25.5,63.3,25.3,63.3,25.1z M63.3,23.9l-0.5,0.1
			c-0.5,0.1-0.7,0.4-0.7,0.7c0,0.1,0,0.2,0.1,0.3c0.1,0.1,0.2,0.1,0.3,0.1c0.2,0,0.4-0.1,0.6-0.4c0.1-0.2,0.2-0.5,0.2-0.7
			C63.3,24,63.3,24,63.3,23.9z"/>
		<path fill="#989898" d="M65.1,25.6h-0.5v-4.2h0.5V25.6z"/>
		<path fill="#989898" d="M66.4,22.7v0.4c0.3-0.3,0.6-0.4,1-0.4c0.7,0,1,0.4,1,1.1v1.8h-0.5v-1.7c0-0.5-0.2-0.8-0.7-0.8
			c-0.2,0-0.4,0.1-0.6,0.2c-0.1,0.2-0.2,0.3-0.2,0.6v1.7h-0.5v-2.8H66.4z"/>
		<path fill="#989898" d="M70.4,25.6c-0.4,0-0.8-0.1-1-0.4c-0.2-0.3-0.4-0.6-0.4-1.1c0-0.4,0.1-0.8,0.4-1c0.3-0.3,0.6-0.4,1-0.4
			c0.4,0,0.8,0.1,1,0.4c0.3,0.3,0.4,0.6,0.4,1c0,0.4-0.1,0.8-0.4,1.1C71.2,25.5,70.8,25.6,70.4,25.6z M70.4,23
			c-0.3,0-0.5,0.1-0.6,0.3c-0.1,0.2-0.2,0.4-0.2,0.7c0,0.3,0.1,0.6,0.2,0.8c0.1,0.2,0.4,0.4,0.7,0.4c0.3,0,0.5-0.1,0.7-0.4
			c0.1-0.2,0.2-0.5,0.2-0.8c0-0.3-0.1-0.6-0.2-0.7C70.9,23.1,70.7,23,70.4,23z"/>
		<path fill="#989898" d="M74.6,22.7v0.4c0.2-0.3,0.5-0.4,0.9-0.4c0.4,0,0.7,0.1,0.9,0.4c0.3-0.3,0.6-0.4,1-0.4
			c0.3,0,0.5,0.1,0.7,0.3c0.2,0.2,0.3,0.4,0.3,0.7v1.9h-0.5v-1.7c0-0.5-0.2-0.8-0.6-0.8c-0.5,0-0.7,0.3-0.7,0.8v1.7h-0.5v-1.7
			c0-0.5-0.2-0.8-0.6-0.8c-0.5,0-0.7,0.3-0.7,0.8v1.7h-0.5v-2.8H74.6z"/>
		<path fill="#989898" d="M78.7,27v-0.2c0.2,0,0.3-0.2,0.3-0.4c0-0.1,0-0.3,0-0.6v-3h0.5v3C79.6,26.6,79.3,27,78.7,27z M79.4,22.2
			c-0.2,0-0.3-0.1-0.3-0.3c0-0.1,0-0.2,0.1-0.2c0.1-0.1,0.1-0.1,0.2-0.1c0.1,0,0.2,0,0.2,0.1c0.1,0.1,0.1,0.1,0.1,0.2
			C79.7,22,79.6,22.2,79.4,22.2z"/>
		<path fill="#989898" d="M82.7,24.2h-1.9c0,0.3,0.1,0.5,0.3,0.7c0.2,0.2,0.4,0.3,0.7,0.3c0.3,0,0.6-0.1,0.8-0.2l0.1,0.3
			c-0.3,0.2-0.6,0.3-0.9,0.3c-0.5,0-0.8-0.1-1.1-0.4c-0.2-0.3-0.4-0.6-0.4-1.1c0-0.4,0.1-0.8,0.4-1c0.2-0.3,0.6-0.4,1-0.4
			c0.4,0,0.6,0.1,0.8,0.4c0.2,0.2,0.3,0.5,0.3,0.9C82.7,24.1,82.7,24.1,82.7,24.2z M80.8,23.8h1.4c0-0.2,0-0.4-0.1-0.6
			C82,23.1,81.8,23,81.6,23c-0.2,0-0.4,0.1-0.6,0.2S80.8,23.6,80.8,23.8z"/>
		<path fill="#989898" d="M84.9,22.9l-0.2,0.3c-0.2-0.1-0.4-0.2-0.5-0.2c-0.1,0-0.2,0-0.3,0.1c-0.1,0.1-0.1,0.1-0.1,0.2
			c0,0.1,0.1,0.2,0.2,0.3c0.3,0.2,0.4,0.3,0.5,0.3c0.2,0.1,0.3,0.3,0.4,0.4c0.1,0.2,0.2,0.3,0.2,0.5c0,0.2-0.1,0.4-0.3,0.6
			c-0.2,0.1-0.4,0.2-0.7,0.2c-0.4,0-0.7-0.1-0.9-0.4l0.2-0.3c0.2,0.2,0.4,0.3,0.6,0.3c0.1,0,0.2,0,0.3-0.1c0.1-0.1,0.1-0.2,0.1-0.3
			c0-0.1-0.1-0.3-0.2-0.4c-0.1-0.1-0.2-0.2-0.4-0.3c-0.2-0.1-0.3-0.2-0.4-0.3c-0.1-0.1-0.2-0.3-0.2-0.5c0-0.2,0.1-0.4,0.3-0.5
			c0.2-0.1,0.4-0.2,0.6-0.2C84.5,22.7,84.7,22.8,84.9,22.9z"/>
		<path fill="#989898" d="M86.2,21.9v0.8h0.7V23h-0.7v1.6c0,0.4,0.1,0.6,0.4,0.6c0.1,0,0.3,0,0.4-0.1l0.1,0.3
			c-0.2,0.1-0.4,0.2-0.6,0.2c-0.6,0-0.8-0.3-0.8-0.9V23h-0.4v-0.3h0.4v-0.7L86.2,21.9z"/>
		<path fill="#989898" d="M88.7,25.6c-0.4,0-0.8-0.1-1-0.4c-0.2-0.3-0.4-0.6-0.4-1.1c0-0.4,0.1-0.8,0.4-1c0.3-0.3,0.6-0.4,1-0.4
			c0.4,0,0.8,0.1,1,0.4c0.3,0.3,0.4,0.6,0.4,1c0,0.4-0.1,0.8-0.4,1.1C89.4,25.5,89.1,25.6,88.7,25.6z M88.7,23
			c-0.3,0-0.5,0.1-0.6,0.3c-0.1,0.2-0.2,0.4-0.2,0.7c0,0.3,0.1,0.6,0.2,0.8c0.1,0.2,0.4,0.4,0.7,0.4c0.3,0,0.5-0.1,0.7-0.4
			c0.1-0.2,0.2-0.5,0.2-0.8c0-0.3-0.1-0.6-0.2-0.7C89.2,23.1,89,23,88.7,23z"/>
		<path fill="#989898" d="M93,21.9v0.8h0.7V23H93v1.6c0,0.4,0.1,0.6,0.4,0.6c0.1,0,0.3,0,0.4-0.1l0.1,0.3c-0.2,0.1-0.4,0.2-0.6,0.2
			c-0.6,0-0.8-0.3-0.8-0.9V23h-0.4v-0.3h0.4v-0.7L93,21.9z"/>
		<path fill="#989898" d="M94.8,22.7v0.4l0.2-0.2c0.1-0.1,0.3-0.2,0.4-0.2c0.2,0,0.3,0.1,0.5,0.3l-0.2,0.3c-0.2-0.1-0.3-0.1-0.4-0.1
			c-0.2,0-0.3,0.1-0.4,0.3c-0.1,0.2-0.1,0.3-0.1,0.6v1.5h-0.5v-2.8H94.8z"/>
		<path fill="#989898" d="M98.3,22.7V23l-1.7,2.3h1.7v0.3h-2.4l0-0.2l1.8-2.3h-1.4v-0.3H98.3z M97.1,22l0.6-0.5H98l-0.7,0.9h-0.4
			l-0.7-0.9h0.3L97.1,22z"/>
		<path fill="#989898" d="M99,22.2c-0.2,0-0.3-0.1-0.3-0.3c0-0.1,0-0.2,0.1-0.2c0.1-0.1,0.1-0.1,0.2-0.1c0.1,0,0.2,0,0.2,0.1
			c0.1,0.1,0.1,0.1,0.1,0.2C99.4,22,99.3,22.2,99,22.2z M98.8,22.7h0.5v2.8h-0.5V22.7z"/>
		<path fill="#989898" d="M101.7,22.9l-0.2,0.3c-0.2-0.1-0.4-0.2-0.5-0.2c-0.1,0-0.2,0-0.3,0.1c-0.1,0.1-0.1,0.1-0.1,0.2
			c0,0.1,0.1,0.2,0.2,0.3c0.3,0.2,0.4,0.3,0.5,0.3c0.2,0.1,0.3,0.3,0.4,0.4c0.1,0.2,0.2,0.3,0.2,0.5c0,0.2-0.1,0.4-0.3,0.6
			c-0.2,0.1-0.4,0.2-0.7,0.2c-0.4,0-0.7-0.1-0.9-0.4l0.2-0.3c0.2,0.2,0.4,0.3,0.6,0.3c0.1,0,0.2,0,0.3-0.1c0.1-0.1,0.1-0.2,0.1-0.3
			c0-0.1-0.1-0.3-0.2-0.4c-0.1-0.1-0.2-0.2-0.4-0.3c-0.2-0.1-0.3-0.2-0.4-0.3c-0.1-0.1-0.2-0.3-0.2-0.5c0-0.2,0.1-0.4,0.3-0.5
			c0.2-0.1,0.4-0.2,0.6-0.2C101.3,22.7,101.5,22.8,101.7,22.9z M100.8,22l0.6-0.5h0.3l-0.7,0.9h-0.4l-0.7-0.9h0.3L100.8,22z"/>
		<path fill="#989898" d="M103,21.9v0.8h0.7V23H103v1.6c0,0.4,0.1,0.6,0.4,0.6c0.1,0,0.3,0,0.4-0.1l0.1,0.3
			c-0.2,0.1-0.4,0.2-0.6,0.2c-0.6,0-0.8-0.3-0.8-0.9V23h-0.4v-0.3h0.4v-0.7L103,21.9z"/>
		<path fill="#989898" d="M105.8,25.1l-0.2,0.2c-0.3,0.2-0.5,0.4-0.7,0.4c-0.2,0-0.4-0.1-0.6-0.3c-0.1-0.2-0.2-0.4-0.2-0.6
			c0-0.4,0.3-0.8,1-1l0.7-0.2c0-0.2-0.1-0.3-0.2-0.4c-0.1-0.1-0.2-0.2-0.4-0.2c-0.2,0-0.5,0.1-0.7,0.3l-0.2-0.3
			c0.3-0.3,0.6-0.4,1-0.4c0.7,0,1,0.3,1,1v1.2c0,0.3,0,0.5,0.1,0.7h-0.6C105.8,25.5,105.8,25.3,105.8,25.1z M105.8,23.9l-0.5,0.1
			c-0.5,0.1-0.7,0.4-0.7,0.7c0,0.1,0,0.2,0.1,0.3c0.1,0.1,0.2,0.1,0.3,0.1c0.2,0,0.4-0.1,0.6-0.4c0.1-0.2,0.2-0.5,0.2-0.7
			C105.8,24,105.8,24,105.8,23.9z"/>
		<path fill="#989898" d="M109.2,22.7v0.4l0.2-0.2c0.1-0.1,0.3-0.2,0.4-0.2c0.2,0,0.3,0.1,0.5,0.3l-0.2,0.3
			c-0.2-0.1-0.3-0.1-0.4-0.1c-0.2,0-0.3,0.1-0.4,0.3c-0.1,0.2-0.1,0.3-0.1,0.6v1.5h-0.5v-2.8H109.2z"/>
		<path fill="#989898" d="M112.2,25.1l-0.2,0.2c-0.3,0.2-0.5,0.4-0.7,0.4c-0.2,0-0.4-0.1-0.6-0.3c-0.1-0.2-0.2-0.4-0.2-0.6
			c0-0.4,0.3-0.8,1-1l0.7-0.2c0-0.2-0.1-0.3-0.2-0.4c-0.1-0.1-0.2-0.2-0.4-0.2c-0.2,0-0.5,0.1-0.7,0.3l-0.2-0.3
			c0.3-0.3,0.6-0.4,1-0.4c0.7,0,1,0.3,1,1v1.2c0,0.3,0,0.5,0.1,0.7h-0.6C112.2,25.5,112.2,25.3,112.2,25.1z M112.2,23.9l-0.5,0.1
			c-0.5,0.1-0.7,0.4-0.7,0.7c0,0.1,0,0.2,0.1,0.3c0.1,0.1,0.2,0.1,0.3,0.1c0.2,0,0.4-0.1,0.6-0.4c0.1-0.2,0.2-0.5,0.2-0.7
			C112.2,24,112.2,24,112.2,23.9z"/>
		<path fill="#989898" d="M115.5,25.6v-0.4h0c-0.2,0.3-0.6,0.5-1,0.5c-0.4,0-0.7-0.2-0.9-0.5c-0.2-0.3-0.3-0.6-0.3-1.1
			c0-0.4,0.1-0.7,0.4-1c0.2-0.3,0.6-0.4,0.9-0.4c0.4,0,0.7,0.1,0.9,0.4h0v-1.7h0.5v4.2H115.5z M114.7,25.3c0.3,0,0.5-0.1,0.7-0.4
			c0.1-0.2,0.2-0.5,0.2-0.8c0-0.3-0.1-0.5-0.2-0.7c-0.2-0.2-0.4-0.3-0.6-0.3c-0.3,0-0.5,0.1-0.6,0.3c-0.1,0.2-0.2,0.4-0.2,0.7
			c0,0.3,0.1,0.6,0.2,0.8C114.2,25.1,114.4,25.3,114.7,25.3z"/>
		<path fill="#989898" d="M118.4,25.1l-0.2,0.2c-0.3,0.2-0.5,0.4-0.7,0.4c-0.2,0-0.4-0.1-0.6-0.3c-0.1-0.2-0.2-0.4-0.2-0.6
			c0-0.4,0.3-0.8,1-1l0.7-0.2c0-0.2-0.1-0.3-0.2-0.4c-0.1-0.1-0.2-0.2-0.4-0.2c-0.2,0-0.5,0.1-0.7,0.3l-0.2-0.3
			c0.3-0.3,0.6-0.4,1-0.4c0.7,0,1,0.3,1,1v1.2c0,0.3,0,0.5,0.1,0.7h-0.6C118.4,25.5,118.4,25.3,118.4,25.1z M118.4,23.9l-0.5,0.1
			c-0.5,0.1-0.7,0.4-0.7,0.7c0,0.1,0,0.2,0.1,0.3c0.1,0.1,0.2,0.1,0.3,0.1c0.2,0,0.4-0.1,0.6-0.4c0.1-0.2,0.2-0.5,0.2-0.7
			C118.4,24,118.4,24,118.4,23.9z"/>
	</g>
</g>
</svg>
